# xmcd CD database file
#
# Track frame offsets:
#	150
#	11169
#	31197
#	53084
#	70346
#	83275
#	100904
#	115769
#	128444
#	148791
#
# Disc length: 2248 seconds
#
# Revision: 4
# Processed by: cddbd v1.5.1PL0 Copyright (c) Steve Scherf et al.
# Submitted via: CDex 1.51
#
DISCID=7708c60a
DTITLE=Bjørn Berge - Stringmachine
DYEAR=2001
DGENRE=Blues
TTITLE0=Stringmachine
TTITLE1=Changes
TTITLE2=Who Do You Think You Are
TTITLE3=Pink Slip
TTITLE4=Am I Wrong
TTITLE5=Good Thing
TTITLE6=Look On Wonder Wall
TTITLE7=Dig You Babe
TTITLE8=Kind Hearted Woman
TTITLE9=Run In On A Groove
EXTD=YEAR: 2001
EXTT0=
EXTT1=
EXTT2=
EXTT3=
EXTT4=
EXTT5=
EXTT6=
EXTT7=
EXTT8=
EXTT9=
PLAYORDER=
